<svg width="28" height="28" viewBox="0 0 28 28" fill="none" xmlns="http://www.w3.org/2000/svg">
<path d="M14 25.6666C20.4434 25.6666 25.6667 20.4432 25.6667 13.9999C25.6667 7.5566 20.4434 2.33325 14 2.33325C7.55672 2.33325 2.33337 7.5566 2.33337 13.9999C2.33337 20.4432 7.55672 25.6666 14 25.6666Z" fill="#FBFBFB" stroke="#B4C0D3" stroke-width="1.2" stroke-miterlimit="10" stroke-linecap="round" stroke-linejoin="round"/>
<path d="M18.9016 11.6748C19.214 11.3624 19.214 10.8559 18.9016 10.5434C18.5891 10.231 18.0826 10.231 17.7702 10.5434L18.9016 11.6748ZM12.5543 16.8907L11.9887 17.4564C12.3011 17.7688 12.8076 17.7688 13.12 17.4564L12.5543 16.8907ZM10.2293 13.4342C9.91684 13.1218 9.41031 13.1218 9.09789 13.4342C8.78547 13.7466 8.78547 14.2532 9.09789 14.5656L10.2293 13.4342ZM17.7702 10.5434L11.9887 16.325L13.12 17.4564L18.9016 11.6748L17.7702 10.5434ZM13.12 16.325L10.2293 13.4342L9.09789 14.5656L11.9887 17.4564L13.12 16.325Z" fill="#B4C0D3"/>
</svg>
