<svg width="24" height="24" viewBox="0 0 24 24" fill="none" xmlns="http://www.w3.org/2000/svg">
<path d="M20.8547 21.1689L20.8547 21.9689H20.8547L20.8547 21.1689ZM3.1454 21.1689L3.1454 20.3689L3.1454 20.3689L3.1454 21.1689ZM2.03858 20.0621L2.83858 20.0621L2.83858 20.0621L2.03858 20.0621ZM2.03857 5.67334L2.03857 4.87334C1.8264 4.87334 1.62292 4.95763 1.47289 5.10765C1.32286 5.25768 1.23857 5.46117 1.23857 5.67334L2.03857 5.67334ZM20.8547 5.67334L20.8547 4.87334L20.8547 4.87334L20.8547 5.67334ZM21.9615 6.78017L22.7615 6.78017L22.7615 6.78017L21.9615 6.78017ZM21.9615 20.0621L21.1615 20.0621L21.1615 20.0621L21.9615 20.0621ZM20.8547 20.3689L3.1454 20.3689L3.1454 21.9689L20.8547 21.9689L20.8547 20.3689ZM2.83858 20.0621L2.83857 5.67334L1.23857 5.67334L1.23858 20.0621L2.83858 20.0621ZM2.03857 6.47334L20.8547 6.47334L20.8547 4.87334L2.03857 4.87334L2.03857 6.47334ZM20.8547 6.47334C21.0241 6.47334 21.1615 6.61071 21.1615 6.78017L22.7615 6.78017C22.7615 5.72706 21.9078 4.87334 20.8547 4.87334L20.8547 6.47334ZM3.1454 20.3689C2.97595 20.3689 2.83858 20.2316 2.83858 20.0621L1.23858 20.0621C1.23857 21.1152 2.09229 21.9689 3.1454 21.9689L3.1454 20.3689ZM20.8547 21.9689C21.9078 21.9689 22.7615 21.1152 22.7615 20.0621L21.1615 20.0621C21.1615 20.2316 21.0241 20.3689 20.8547 20.3689L20.8547 21.9689ZM21.1615 6.78017L21.1615 20.0621L22.7615 20.0621L22.7615 6.78017L21.1615 6.78017Z" fill="#3D60DE"/>
<path d="M14.1841 5.67365L11.8804 2.99186C11.6273 2.69725 11.284 2.53174 10.9261 2.53174H3.38808C2.64277 2.53174 2.03857 3.23508 2.03857 4.10269V5.67365" stroke="#3D60DE" stroke-width="1.6" stroke-linecap="round" stroke-linejoin="round"/>
</svg>
