<svg width="28" height="28" viewBox="0 0 28 28" fill="none" xmlns="http://www.w3.org/2000/svg">
<path d="M14 25.6666C20.4434 25.6666 25.6667 20.4432 25.6667 13.9999C25.6667 7.5566 20.4434 2.33325 14 2.33325C7.55672 2.33325 2.33337 7.5566 2.33337 13.9999C2.33337 20.4432 7.55672 25.6666 14 25.6666Z" fill="#4876EF"/>
<path d="M18.4191 11.9378C18.712 11.6449 18.712 11.17 18.4191 10.8771C18.1262 10.5842 17.6513 10.5842 17.3584 10.8771L18.4191 11.9378ZM12.7036 16.5927L12.1732 17.123C12.4661 17.4159 12.941 17.4159 13.2339 17.123L12.7036 16.5927ZM10.6413 13.4697C10.3484 13.1768 9.87353 13.1768 9.58063 13.4697C9.28774 13.7626 9.28774 14.2375 9.58063 14.5304L10.6413 13.4697ZM17.3584 10.8771L12.1732 16.0623L13.2339 17.123L18.4191 11.9378L17.3584 10.8771ZM13.2339 16.0623L10.6413 13.4697L9.58063 14.5304L12.1732 17.123L13.2339 16.0623Z" fill="white"/>
</svg>
